<svg width="32" height="32" viewBox="0 0 32 32" fill="none" xmlns="http://www.w3.org/2000/svg">
<path d="M17.2376 2.64937C16.0813 2.67749 14.3063 3.88999 12.9251 5.17062C12.6376 5.43687 12.3751 5.69624 12.1313 5.94499C15.6438 6.09812 18.9563 5.92249 22.2438 5.68187C21.9251 5.37437 21.5563 5.03624 21.1438 4.69062C19.8626 3.61499 18.2313 2.62499 17.2376 2.64937ZM27.2501 6.43124C21.0001 6.88749 14.8313 7.59374 7.63131 6.69999C7.30631 7.01874 7.13756 7.29999 7.08756 7.53124C7.04381 7.75624 7.07506 7.96249 7.22506 8.22499C14.3188 9.80624 21.4126 9.84374 27.6751 7.81249C27.7063 7.63749 27.6813 7.45624 27.6063 7.22499C27.5313 6.98749 27.4001 6.71874 27.2501 6.43124ZM26.4688 9.34374C20.9001 10.8375 14.8126 10.825 8.71256 9.68124C7.21881 15.45 4.33756 20.6437 5.15443 26.725L5.22693 27.2625L4.69131 27.3562C4.07693 27.4562 3.20193 28 2.69443 28.5625C2.44006 28.8437 2.28256 29.125 2.24568 29.2812C2.20881 29.4312 2.18693 29.3687 2.26631 29.4187C2.59006 29.6375 3.57881 29.7562 4.63068 29.5937C5.68256 29.4312 6.80631 29.0375 7.48756 28.6062L7.67506 28.4875L7.89381 28.5312C13.3438 29.5625 18.3001 30.0812 23.7688 28.7562L24.0376 28.6875L24.2563 28.8625C24.6063 29.15 25.7376 29.3875 26.9063 29.425C27.9688 29.4625 29.0188 29.3937 29.7313 29.3625C29.6626 29.175 29.5251 28.8875 29.3188 28.5812C29.0563 28.2062 28.7251 27.8187 28.4126 27.525C28.0938 27.2312 27.7626 27.0625 27.7188 27.05L27.1626 26.9437L27.2751 26.3875C28.4063 20.8125 28.9313 15.1687 26.4688 9.34374ZM16.9376 11.5562C20.6438 11.5562 23.5751 14.975 23.5751 19.0937C23.5751 23.2125 20.6438 26.6312 16.9376 26.6312C13.2313 26.6312 10.3001 23.2125 10.3001 19.0937C10.3001 14.975 13.2313 11.5562 16.9376 11.5562ZM16.9376 12.6812C13.9313 12.6812 11.4251 15.5062 11.4251 19.0937C11.4251 22.3875 13.5376 25.0375 16.2126 25.45L16.3376 23.0062C14.4126 22.6312 13.8501 20.5437 13.8438 19.775C14.4251 19.8375 15.7188 20.2937 16.4251 21.325L16.5063 19.8C14.5751 19.4312 14.0126 17.3375 14.0063 16.5687C14.5813 16.6312 15.8876 17.0875 16.5938 18.1312L16.6751 16.6125C15.5626 16.15 15.2188 14.7937 15.2126 14.2687C15.7126 14.3187 16.9251 14.7812 17.3313 15.8625C17.8563 14.8375 19.1001 14.5062 19.5938 14.5062C19.5376 15.0562 19.0313 16.4187 17.7938 16.7187L17.7188 18.175C18.5251 17.2187 19.8626 16.9 20.4501 16.9062C20.3563 17.6625 19.5876 19.6875 17.6313 19.8562L17.5501 21.3937C18.3563 20.4312 19.7001 20.1125 20.2813 20.1125C20.2001 20.8687 19.4251 22.9 17.4626 23.0625L17.3376 25.4875C20.1626 25.25 22.4501 22.5187 22.4501 19.0937C22.4501 15.5062 19.9438 12.6812 16.9376 12.6812Z" fill="#36623B"/>
</svg>
